<svg xmlns="http://www.w3.org/2000/svg" xmlns:xlink="http://www.w3.org/1999/xlink" viewBox="0 0 1200 800"><defs><style>.cls-1{fill:none;}.cls-2{isolation:isolate;}.cls-3{fill:url(#linear-gradient);}.cls-4{clip-path:url(#clip-path);}.cls-5{fill:#fff;}.cls-45,.cls-46,.cls-47,.cls-6{mix-blend-mode:multiply;}.cls-6{opacity:0.55;}.cls-7{fill:#fefefe;}.cls-8{fill:#fdfdfd;}.cls-9{fill:#fcfcfc;}.cls-10{fill:#fbfbfb;}.cls-11{fill:#fafafa;}.cls-12{fill:#f9f9f9;}.cls-13{fill:#f8f8f8;}.cls-14{fill:#f7f7f7;}.cls-15{fill:#f6f6f6;}.cls-16{fill:#f5f5f5;}.cls-17{fill:#f4f4f4;}.cls-18{fill:#f3f3f3;}.cls-19{fill:#f2f2f2;}.cls-20{fill:#f1f1f1;}.cls-21{fill:#f0f0f0;}.cls-22{fill:#efefef;}.cls-23{fill:#eee;}.cls-24{fill:#ededed;}.cls-25{fill:#ececec;}.cls-26{fill:#ebebeb;}.cls-27{fill:#eaeaea;}.cls-28{fill:#e9e9e9;}.cls-29{fill:#e8e8e8;}.cls-30{fill:#e7e7e7;}.cls-31{fill:#e6e6e6;}.cls-32{fill:#e5e5e5;}.cls-33{fill:#e4e4e4;}.cls-34{fill:#e3e3e3;}.cls-35{fill:#e2e2e2;}.cls-36{fill:#e1e1e1;}.cls-37{fill:#e0e0e0;}.cls-38{fill:#dfdfdf;}.cls-39{fill:#dedede;}.cls-40{fill:#ddd;}.cls-41{fill:#dcdcdc;}.cls-42{fill:#dbdbdb;}.cls-43{fill:#dadada;}.cls-44{fill:#d9d9d9;}.cls-46{opacity:0.4;}.cls-47{opacity:0.5;}.cls-48{fill:#c5c5c5;}</style><linearGradient id="linear-gradient" y1="399.54" x2="1256.08" y2="399.54" gradientUnits="userSpaceOnUse"><stop offset="0" stop-color="#e9e9e9"/><stop offset="0.22" stop-color="#f1f1f1"/><stop offset="0.52" stop-color="#f6f6f6"/><stop offset="0.74" stop-color="#f1f1f1"/><stop offset="1" stop-color="#e3e3e3"/><stop offset="1" stop-color="#e3e3e3"/></linearGradient><clipPath id="clip-path"><rect class="cls-1" width="1200" height="799.07"/></clipPath></defs><g class="cls-2"><g id="Background"><rect class="cls-3" width="1200" height="799.07"/></g><g id="Shadow"><g class="cls-4"><circle class="cls-5" cx="95.36" cy="349.4" r="20.94"/><g class="cls-6"><path class="cls-5" d="M116,768H398L257,523.77Zm296.94,9H101L257,507Z"/><path class="cls-7" d="M116.61,767.64h282l-141-244.23Zm296.93,9H101.68L257.61,506.6Z"/><path class="cls-8" d="M117.26,767.28h282l-141-244.23Zm296.94,9H102.34L258.27,506.24Z"/><path class="cls-9" d="M117.92,766.92h282l-141-244.23Zm296.94,9H103L258.93,505.88Z"/><path class="cls-10" d="M118.58,766.57h282l-141-244.24Zm296.94,9H103.65L259.58,505.52Z"/><path class="cls-11" d="M119.24,766.21h282L260.24,522Zm296.93,9H104.31L260.24,505.16Z"/><path class="cls-12" d="M119.89,765.85h282l-141-244.23Zm296.94,9H105L260.9,504.81Z"/><path class="cls-13" d="M120.55,765.49h282l-141-244.23Zm296.94,9H105.63L261.56,504.45Z"/><path class="cls-14" d="M121.21,765.13h282l-141-244.23Zm296.94,9H106.28L262.21,504.09Z"/><path class="cls-15" d="M121.86,764.77h282l-141-244.23Zm296.94,9H106.94L262.87,503.73Z"/><path class="cls-16" d="M122.52,764.41h282l-141-244.23Zm296.94,9H107.6L263.53,503.37Z"/><path class="cls-17" d="M123.18,764.06h282l-141-244.24Zm296.94,9H108.25L264.19,503Z"/><path class="cls-18" d="M123.84,763.7h282l-141-244.23Zm296.93,9H108.91L264.84,502.66Z"/><path class="cls-19" d="M124.49,763.34h282l-141-244.23Zm296.94,9H109.57L265.5,502.3Z"/><path class="cls-20" d="M125.15,763h282l-141-244.23Zm296.94,9H110.23L266.16,501.94Z"/><path class="cls-21" d="M125.81,762.62h282l-141-244.23Zm296.94,9H110.88L266.82,501.58Z"/><path class="cls-22" d="M126.47,762.26h282L267.47,518Zm296.93,9H111.54L267.47,501.22Z"/><path class="cls-23" d="M127.12,761.9h282l-141-244.23Zm296.94,9H112.2L268.13,500.86Z"/><path class="cls-24" d="M127.78,761.55h282l-141-244.23Zm296.94,9H112.86L268.79,500.5Z"/><path class="cls-25" d="M128.44,761.19h282L269.44,517Zm296.94,9H113.51L269.44,500.15Z"/><path class="cls-25" d="M129.1,760.83h282L270.1,516.6Zm296.93,9H114.17L270.1,499.79Z"/><path class="cls-26" d="M129.75,760.47h282l-141-244.23Zm296.94,9H114.83L270.76,499.43Z"/><path class="cls-27" d="M130.41,760.11h282l-141-244.23Zm296.94,9H115.49L271.42,499.07Z"/><path class="cls-28" d="M131.07,759.75h282l-141-244.23Zm296.94,9H116.14L272.07,498.71Z"/><path class="cls-29" d="M131.72,759.4h282l-141-244.24Zm296.94,9H116.8L272.73,498.35Z"/><path class="cls-30" d="M132.38,759h282l-141-244.23Zm296.94,9H117.46L273.39,498Z"/><path class="cls-31" d="M133,758.68h282l-141-244.23Zm296.94,9H118.11L274.05,497.64Z"/><path class="cls-32" d="M133.7,758.32h282l-141-244.23Zm296.93,9H118.77L274.7,497.28Z"/><path class="cls-33" d="M134.35,758h282l-141-244.23Zm296.94,9H119.43L275.36,496.92Z"/><path class="cls-34" d="M135,757.6H417L276,513.37Zm296.94,9H120.09L276,496.56Z"/><path class="cls-35" d="M135.67,757.24h282L276.68,513Zm296.94,9H120.74L276.68,496.2Z"/><path class="cls-36" d="M136.33,756.89h282l-141-244.24Zm296.93,9H121.4L277.33,495.84Z"/><path class="cls-37" d="M137,756.53H419L278,512.3Zm296.94,9H122.06L278,495.49Z"/><path class="cls-38" d="M137.64,756.17h282l-141-244.23Zm296.94,9H122.72L278.65,495.13Z"/><path class="cls-39" d="M138.3,755.81h282l-141-244.23Zm296.94,9H123.37L279.3,494.77Z"/><path class="cls-40" d="M139,755.45H421L280,511.22Zm296.93,9H124L280,494.41Z"/><path class="cls-41" d="M139.61,755.09h282l-141-244.23Zm296.94,9H124.69L280.62,494.05Z"/><path class="cls-42" d="M140.27,754.74h282l-141-244.24Zm296.94,9H125.35L281.28,493.69Z"/><path class="cls-43" d="M140.93,754.38h282l-141-244.23Zm296.94,9H126L281.93,493.33Z"/><path class="cls-44" d="M141.58,754h282l-141-244.23Zm296.94,9H126.66L282.59,493Z"/></g><g class="cls-45"><path class="cls-5" d="M9.79,573,0,785.65S57.26,737,57.26,668.86C57.26,617.29,30.86,590,9.79,573Z"/><path class="cls-7" d="M0,784.06s56.77-47.61,56.77-115.74c0-51.57-26.4-78.88-47.47-95.86Z"/><path class="cls-8" d="M0,782.46S56.29,735.9,56.29,667.77c0-51.57-26.41-78.88-47.48-95.86Z"/><path class="cls-9" d="M0,780.87s55.8-45.51,55.8-113.65c0-51.57-26.41-78.88-47.48-95.85Z"/><path class="cls-10" d="M0,779.28s55.31-44.47,55.31-112.6c0-51.57-26.41-78.88-47.48-95.86Z"/><path class="cls-11" d="M0,777.68s54.82-43.42,54.82-111.55c0-51.57-26.41-78.88-47.48-95.86Z"/><path class="cls-12" d="M0,776.09s54.33-42.37,54.33-110.5c0-51.58-26.41-78.89-47.48-95.86Z"/><path class="cls-13" d="M0,774.5S53.84,733.17,53.84,665c0-51.57-26.41-78.88-47.48-95.86Z"/><path class="cls-14" d="M0,772.91s53.35-40.29,53.35-108.42c0-51.57-26.4-78.88-47.48-95.86Z"/><path class="cls-15" d="M0,771.31S52.86,732.08,52.86,664c0-51.58-26.4-78.89-47.48-95.86Z"/><path class="cls-15" d="M0,769.72S52.37,731.53,52.37,663.4c0-51.57-26.4-78.88-47.48-95.86Z"/><path class="cls-16" d="M0,768.13S51.88,731,51.88,662.85C51.88,611.28,25.48,584,4.4,567Z"/><path class="cls-17" d="M0,766.53s51.39-36.09,51.39-104.22c0-51.58-26.4-78.89-47.48-95.86Z"/><path class="cls-18" d="M0,764.94s50.9-35.05,50.9-103.18c0-51.57-26.4-78.88-47.47-95.86Z"/><path class="cls-19" d="M0,763.35s50.41-34,50.41-102.14c0-51.57-26.4-78.88-47.47-95.86Z"/><path class="cls-20" d="M0,761.76s49.92-33,49.92-101.09c0-51.58-26.4-78.89-47.47-95.86Z"/><path class="cls-21" d="M0,760.16s49.44-31.91,49.44-100C49.44,608.55,23,581.24,2,564.26Z"/><path class="cls-22" d="M0,758.57s49-30.86,49-99C49,608,22.54,580.69,1.47,563.72Z"/><path class="cls-23" d="M0,757s48.46-29.82,48.46-98c0-51.57-26.41-78.88-47.48-95.86Z"/><path class="cls-24" d="M0,755.39s48-28.78,48-96.91C48,606.91,21.56,579.6.49,562.62Z"/><path class="cls-25" d="M0,562.08V753.79s47.48-27.72,47.48-95.86C47.48,606.36,21.07,579.05,0,562.08Z"/></g><g class="cls-46"><path class="cls-5" d="M1217.34-71.36h-282l141,244.23Zm-296.94-9h311.87L1076.34,189.68Z"/><path class="cls-7" d="M1217.18-70.3h-282l141,244.23Zm-296.94-9h311.87L1076.17,190.74Z"/><path class="cls-8" d="M1217-69.24H935L1076,175Zm-296.94-9h311.86L1076,191.81Z"/><path class="cls-9" d="M1216.86-68.17h-282l141,244.23Zm-296.94-9h311.86L1075.85,192.87Z"/><path class="cls-10" d="M1216.7-67.11h-282l141,244.23Zm-296.94-9h311.86L1075.69,193.93Z"/><path class="cls-11" d="M1216.54-66h-282l141,244.23Zm-296.94-9h311.86L1075.53,195Z"/><path class="cls-12" d="M1216.37-65h-282l141,244.23ZM919.44-74H1231.3L1075.37,196.06Z"/><path class="cls-13" d="M1216.21-63.92h-282l141,244.23ZM919.27-73h311.87L1075.21,197.12Z"/><path class="cls-14" d="M1216.05-62.86H934l141,244.23Zm-296.94-9H1231L1075,198.18Z"/><path class="cls-15" d="M1215.89-61.8h-282l141,244.24ZM919-70.83h311.86L1074.88,199.25Z"/><path class="cls-16" d="M1215.73-60.73h-282l141,244.23Zm-296.94-9h311.86L1074.72,200.31Z"/><path class="cls-17" d="M1215.57-59.67h-282l141,244.23Zm-296.94-9h311.86L1074.56,201.37Z"/><path class="cls-18" d="M1215.41-58.61h-282l141,244.23Zm-296.94-9h311.86L1074.4,202.44Z"/><path class="cls-19" d="M1215.25-57.54h-282l141,244.23Zm-296.94-9h311.86L1074.24,203.5Z"/><path class="cls-20" d="M1215.08-56.48h-282l141,244.23Zm-296.93-9H1230L1074.08,204.56Z"/><path class="cls-21" d="M1214.92-55.42h-282l141,244.23ZM918-64.46h311.87L1073.92,205.62Z"/><path class="cls-22" d="M1214.76-54.35h-282l141,244.23Zm-296.94-9h311.87L1073.75,206.69Z"/><path class="cls-23" d="M1214.6-53.29h-282l141,244.23Zm-296.94-9h311.86L1073.59,207.75Z"/><path class="cls-24" d="M1214.44-52.23h-282l141,244.23Zm-296.94-9h311.86L1073.43,208.81Z"/><path class="cls-25" d="M1214.28-51.17h-282l141,244.23Zm-296.94-9H1229.2L1073.27,209.88Z"/><path class="cls-25" d="M1214.12-50.1h-282l141,244.23Zm-296.94-9H1229L1073.11,210.94Z"/><path class="cls-26" d="M1214-49h-282l141,244.23ZM917-58.08h311.86L1073,212Z"/><path class="cls-27" d="M1213.79-48h-282l141,244.23ZM916.85-57h311.87L1072.79,213.06Z"/><path class="cls-28" d="M1213.63-46.91h-282l141,244.23Zm-296.94-9h311.87L1072.62,214.13Z"/><path class="cls-29" d="M1213.47-45.85h-282l141,244.23Zm-296.94-9H1228.4L1072.46,215.19Z"/><path class="cls-30" d="M1213.31-44.79h-282l141,244.23Zm-296.94-9h311.86L1072.3,216.25Z"/><path class="cls-31" d="M1213.15-43.73h-282l141,244.24Zm-296.94-9h311.86L1072.14,217.32Z"/><path class="cls-32" d="M1213-42.66H931l141,244.23Zm-296.94-9h311.86L1072,218.38Z"/><path class="cls-33" d="M1212.83-41.6h-282l141,244.23Zm-296.94-9h311.86L1071.82,219.44Z"/><path class="cls-34" d="M1212.66-40.54h-282l141,244.23Zm-296.93-9h311.86L1071.66,220.5Z"/><path class="cls-35" d="M1212.5-39.47h-282l141,244.23Zm-296.94-9h311.87L1071.5,221.57Z"/><path class="cls-36" d="M1212.34-38.41h-282l141,244.23Zm-296.94-9h311.87L1071.33,222.63Z"/><path class="cls-37" d="M1212.18-37.35h-282l141,244.23Zm-296.94-9H1227.1L1071.17,223.69Z"/><path class="cls-38" d="M1212-36.29H930L1071,208Zm-296.94-9h311.86L1071,224.76Z"/><path class="cls-39" d="M1211.86-35.22h-282l141,244.23Zm-296.94-9h311.86L1070.85,225.82Z"/><path class="cls-40" d="M1211.7-34.16h-282l141,244.23Zm-296.94-9h311.86L1070.69,226.88Z"/><path class="cls-41" d="M1211.53-33.1h-282l141,244.23Zm-296.93-9h311.86L1070.53,228Z"/><path class="cls-42" d="M1211.37-32h-282l141,244.23Zm-296.93-9H1226.3L1070.37,229Z"/><path class="cls-43" d="M1211.21-31h-282l141,244.23ZM914.27-40h311.87L1070.21,230.07Z"/><path class="cls-44" d="M1211.05-29.91H929l141,244.23Zm-296.94-9H1226L1070,231.13Z"/></g><g class="cls-47"><path class="cls-5" d="M935.33,0,730,16.56S757.68,64,825.81,64C877.39,64,918.35,21.07,935.33,0Z"/><path class="cls-7" d="M934.36,0l-205,16.14s27.73,47.47,95.86,47.47C876.77,63.61,917.39,21.07,934.36,0Z"/><path class="cls-8" d="M933.4,0,728.72,15.71s27.73,47.48,95.86,47.48C876.15,63.19,916.42,21.07,933.4,0Z"/><path class="cls-9" d="M932.43,0,728.11,15.29S755.83,62.76,824,62.76C875.54,62.76,915.45,21.07,932.43,0Z"/><path class="cls-10" d="M931.46,0l-204,14.86s27.73,47.48,95.86,47.48C874.92,62.34,914.49,21.07,931.46,0Z"/><path class="cls-11" d="M930.5,0,726.88,14.44s27.72,47.47,95.86,47.47C874.31,61.91,913.52,21.07,930.5,0Z"/><path class="cls-12" d="M929.53,0,726.26,14S754,61.49,822.12,61.49C873.69,61.49,912.56,21.07,929.53,0Z"/><path class="cls-13" d="M928.57,0,725.65,13.59s27.72,47.47,95.85,47.47C873.08,61.06,911.59,21.07,928.57,0Z"/><path class="cls-14" d="M927.6,0,725,13.16s27.73,47.48,95.86,47.48C872.46,60.64,910.62,21.07,927.6,0Z"/><path class="cls-15" d="M926.63,0,724.41,12.74s27.73,47.47,95.86,47.47C871.84,60.21,909.66,21.07,926.63,0Z"/><path class="cls-16" d="M925.67,0,723.8,12.31s27.72,47.48,95.86,47.48C871.23,59.79,908.69,21.07,925.67,0Z"/><path class="cls-17" d="M924.7,0,723.18,11.89S750.91,59.37,819,59.37C870.61,59.37,907.73,21.07,924.7,0Z"/><path class="cls-18" d="M923.74,0,722.57,11.46s27.72,47.48,95.85,47.48C870,58.94,906.76,21.07,923.74,0Z"/><path class="cls-19" d="M922.77,0,722,11s27.73,47.48,95.86,47.48C869.38,58.52,905.79,21.07,922.77,0Z"/><path class="cls-20" d="M921.8,0,721.33,10.62s27.73,47.47,95.86,47.47C868.76,58.09,904.83,21.07,921.8,0Z"/><path class="cls-21" d="M920.84,0,720.72,10.19s27.72,47.48,95.86,47.48C868.15,57.67,903.86,21.07,920.84,0Z"/><path class="cls-22" d="M919.87,0,720.1,9.77S747.83,57.24,816,57.24C867.53,57.24,902.9,21.07,919.87,0Z"/><path class="cls-23" d="M918.91,0,719.49,9.34s27.72,47.48,95.86,47.48C866.92,56.82,901.93,21.07,918.91,0Z"/><path class="cls-24" d="M917.94,0,718.87,8.92s27.73,47.47,95.86,47.47C866.3,56.39,901,21.07,917.94,0Z"/><path class="cls-25" d="M917,0,718.26,8.49S746,56,814.11,56C865.69,56,900,21.07,917,0Z"/><path class="cls-25" d="M916,0,717.64,8.07s27.73,47.47,95.86,47.47C865.07,55.54,899,21.07,916,0Z"/><path class="cls-26" d="M915,0,717,7.64s27.73,47.48,95.86,47.48C864.45,55.12,898.07,21.07,915,0Z"/><path class="cls-27" d="M914.08,0,716.41,7.22S744.13,54.7,812.27,54.7C863.84,54.7,897.1,21.07,914.08,0Z"/><path class="cls-28" d="M913.11,0,715.79,6.79s27.73,47.48,95.86,47.48C863.22,54.27,896.13,21.07,913.11,0Z"/><path class="cls-29" d="M912.15,0l-197,6.37S742.9,53.85,811,53.85C862.61,53.85,895.17,21.07,912.15,0Z"/><path class="cls-30" d="M911.18,0,714.56,6s27.73,47.47,95.86,47.47C862,53.42,894.2,21.07,911.18,0Z"/><path class="cls-31" d="M910.21,0,713.94,5.52S741.67,53,809.8,53C861.37,53,893.24,21.07,910.21,0Z"/><path class="cls-32" d="M909.25,0,713.33,5.1s27.72,47.47,95.86,47.47C860.76,52.57,892.27,21.07,909.25,0Z"/><path class="cls-33" d="M908.28,0,712.71,4.67s27.73,47.48,95.86,47.48C860.14,52.15,891.31,21.07,908.28,0Z"/><path class="cls-34" d="M907.32,0,712.1,4.25S739.82,51.72,808,51.72C859.53,51.72,890.34,21.07,907.32,0Z"/><path class="cls-35" d="M906.35,0,711.48,3.82S739.21,51.3,807.34,51.3C858.91,51.3,889.37,21.07,906.35,0Z"/><path class="cls-36" d="M905.38,0,710.87,3.4s27.72,47.47,95.85,47.47C858.3,50.87,888.41,21.07,905.38,0Z"/><path class="cls-37" d="M904.42,0,710.25,3S738,50.45,806.11,50.45C857.68,50.45,887.44,21.07,904.42,0Z"/><path class="cls-38" d="M903.45,0,709.63,2.55S737.36,50,805.49,50C857.06,50,886.48,21.07,903.45,0Z"/><path class="cls-39" d="M902.49,0,709,2.12S736.74,49.6,804.88,49.6C856.45,49.6,885.51,21.07,902.49,0Z"/><path class="cls-40" d="M901.52,0,708.4,1.7s27.73,47.48,95.86,47.48C855.83,49.18,884.54,21.07,901.52,0Z"/><path class="cls-41" d="M900.55,0,707.79,1.28s27.72,47.47,95.85,47.47C855.22,48.75,883.58,21.07,900.55,0Z"/><path class="cls-42" d="M899.59,0,707.17.85S734.9,48.33,803,48.33C854.6,48.33,882.61,21.07,899.59,0Z"/><path class="cls-43" d="M898.62,0,706.56.43S734.28,47.9,802.41,47.9C854,47.9,881.65,21.07,898.62,0Z"/><path class="cls-44" d="M897.66,0H705.94s27.72,47.48,95.86,47.48C853.37,47.48,880.68,21.07,897.66,0Z"/></g><g class="cls-46"><rect class="cls-5" x="748.29" y="53.52" width="23.93" height="23.45"/><rect class="cls-7" x="747.99" y="53.79" width="23.93" height="23.45"/><rect class="cls-8" x="747.68" y="54.06" width="23.93" height="23.45"/><rect class="cls-9" x="747.37" y="54.33" width="23.93" height="23.45"/><rect class="cls-10" x="747.07" y="54.6" width="23.93" height="23.45"/><rect class="cls-11" x="746.76" y="54.87" width="23.93" height="23.45"/><rect class="cls-12" x="746.45" y="55.14" width="23.93" height="23.45"/><rect class="cls-13" x="746.15" y="55.4" width="23.93" height="23.45"/><rect class="cls-14" x="745.84" y="55.67" width="23.93" height="23.45"/><rect class="cls-15" x="745.53" y="55.94" width="23.93" height="23.45"/><rect class="cls-16" x="745.23" y="56.21" width="23.93" height="23.45"/><rect class="cls-17" x="744.92" y="56.48" width="23.93" height="23.45"/><rect class="cls-18" x="744.61" y="56.75" width="23.93" height="23.45"/><rect class="cls-19" x="744.31" y="57.01" width="23.93" height="23.45"/><rect class="cls-20" x="744" y="57.28" width="23.93" height="23.45"/><rect class="cls-21" x="743.69" y="57.55" width="23.93" height="23.45"/><rect class="cls-22" x="743.39" y="57.82" width="23.93" height="23.45"/><rect class="cls-23" x="743.08" y="58.09" width="23.93" height="23.45"/><rect class="cls-24" x="742.77" y="58.36" width="23.93" height="23.45"/><rect class="cls-25" x="742.47" y="58.62" width="23.93" height="23.45"/><rect class="cls-25" x="742.16" y="58.89" width="23.93" height="23.45"/><rect class="cls-26" x="741.85" y="59.16" width="23.93" height="23.45"/><rect class="cls-27" x="741.55" y="59.43" width="23.93" height="23.45"/><rect class="cls-28" x="741.24" y="59.7" width="23.93" height="23.45"/><rect class="cls-29" x="740.93" y="59.97" width="23.93" height="23.45"/><rect class="cls-30" x="740.63" y="60.23" width="23.93" height="23.45"/><rect class="cls-31" x="740.32" y="60.5" width="23.93" height="23.45"/><rect class="cls-32" x="740.01" y="60.77" width="23.93" height="23.45"/><rect class="cls-33" x="739.71" y="61.04" width="23.93" height="23.45"/><rect class="cls-34" x="739.4" y="61.31" width="23.93" height="23.45"/><rect class="cls-35" x="739.09" y="61.58" width="23.93" height="23.45"/><rect class="cls-36" x="738.79" y="61.85" width="23.93" height="23.45"/><rect class="cls-37" x="738.48" y="62.11" width="23.93" height="23.45"/><rect class="cls-38" x="738.17" y="62.38" width="23.93" height="23.45"/><rect class="cls-39" x="737.87" y="62.65" width="23.93" height="23.45"/><rect class="cls-40" x="737.56" y="62.92" width="23.93" height="23.45"/><rect class="cls-41" x="737.25" y="63.19" width="23.93" height="23.45"/><rect class="cls-42" x="736.94" y="63.46" width="23.93" height="23.45"/><rect class="cls-43" x="736.64" y="63.72" width="23.93" height="23.45"/><rect class="cls-44" x="736.33" y="63.99" width="23.93" height="23.45"/></g><g class="cls-46"><rect class="cls-5" x="978.64" y="164.11" width="21.79" height="21.36"/><rect class="cls-7" x="978.36" y="164.35" width="21.79" height="21.36"/><rect class="cls-8" x="978.08" y="164.6" width="21.79" height="21.36"/><rect class="cls-9" x="977.8" y="164.84" width="21.79" height="21.36"/><rect class="cls-10" x="977.52" y="165.09" width="21.79" height="21.36"/><rect class="cls-11" x="977.24" y="165.33" width="21.79" height="21.36"/><rect class="cls-12" x="976.96" y="165.58" width="21.79" height="21.36"/><rect class="cls-13" x="976.68" y="165.82" width="21.79" height="21.36"/><rect class="cls-14" x="976.4" y="166.07" width="21.79" height="21.36"/><rect class="cls-15" x="976.13" y="166.31" width="21.79" height="21.36"/><rect class="cls-16" x="975.85" y="166.56" width="21.79" height="21.36"/><rect class="cls-17" x="975.57" y="166.8" width="21.79" height="21.36"/><rect class="cls-18" x="975.29" y="167.04" width="21.79" height="21.36"/><rect class="cls-19" x="975.01" y="167.29" width="21.79" height="21.36"/><rect class="cls-20" x="974.73" y="167.53" width="21.79" height="21.36"/><rect class="cls-21" x="974.45" y="167.78" width="21.79" height="21.36"/><rect class="cls-22" x="974.17" y="168.02" width="21.79" height="21.36"/><rect class="cls-23" x="973.89" y="168.27" width="21.79" height="21.36"/><rect class="cls-24" x="973.61" y="168.51" width="21.79" height="21.36"/><rect class="cls-25" x="973.33" y="168.76" width="21.79" height="21.36"/><rect class="cls-25" x="973.05" y="169" width="21.79" height="21.36"/><rect class="cls-26" x="972.77" y="169.24" width="21.79" height="21.36"/><rect class="cls-27" x="972.49" y="169.49" width="21.79" height="21.36"/><rect class="cls-28" x="972.21" y="169.73" width="21.79" height="21.36"/><rect class="cls-29" x="971.93" y="169.98" width="21.79" height="21.36"/><rect class="cls-30" x="971.66" y="170.22" width="21.79" height="21.36"/><rect class="cls-31" x="971.38" y="170.47" width="21.79" height="21.36"/><rect class="cls-32" x="971.1" y="170.71" width="21.79" height="21.36"/><rect class="cls-33" x="970.82" y="170.96" width="21.79" height="21.36"/><rect class="cls-34" x="970.54" y="171.2" width="21.79" height="21.36"/><rect class="cls-35" x="970.26" y="171.44" width="21.79" height="21.36"/><rect class="cls-36" x="969.98" y="171.69" width="21.79" height="21.36"/><rect class="cls-37" x="969.7" y="171.93" width="21.79" height="21.36"/><rect class="cls-38" x="969.42" y="172.18" width="21.79" height="21.36"/><rect class="cls-39" x="969.14" y="172.42" width="21.79" height="21.36"/><rect class="cls-40" x="968.86" y="172.67" width="21.79" height="21.36"/><rect class="cls-41" x="968.58" y="172.91" width="21.79" height="21.36"/><rect class="cls-42" x="968.3" y="173.16" width="21.79" height="21.36"/><rect class="cls-43" x="968.02" y="173.4" width="21.79" height="21.36"/><rect class="cls-44" x="967.74" y="173.64" width="21.79" height="21.36"/></g><g class="cls-46"><rect class="cls-5" x="408.44" y="536.14" width="28.28" height="27.72"/><rect class="cls-7" x="408.8" y="535.82" width="28.28" height="27.72"/><rect class="cls-8" x="409.17" y="535.51" width="28.28" height="27.72"/><rect class="cls-9" x="409.53" y="535.19" width="28.28" height="27.72"/><rect class="cls-10" x="409.89" y="534.87" width="28.28" height="27.72"/><rect class="cls-11" x="410.25" y="534.56" width="28.28" height="27.72"/><rect class="cls-12" x="410.62" y="534.24" width="28.28" height="27.72"/><rect class="cls-13" x="410.98" y="533.92" width="28.28" height="27.72"/><rect class="cls-14" x="411.34" y="533.6" width="28.28" height="27.72"/><rect class="cls-15" x="411.7" y="533.29" width="28.28" height="27.72"/><rect class="cls-16" x="412.07" y="532.97" width="28.28" height="27.72"/><rect class="cls-17" x="412.43" y="532.65" width="28.28" height="27.72"/><rect class="cls-18" x="412.79" y="532.33" width="28.28" height="27.72"/><rect class="cls-19" x="413.15" y="532.02" width="28.28" height="27.72"/><rect class="cls-20" x="413.52" y="531.7" width="28.28" height="27.72"/><rect class="cls-21" x="413.88" y="531.38" width="28.28" height="27.72"/><rect class="cls-22" x="414.24" y="531.07" width="28.28" height="27.72"/><rect class="cls-23" x="414.6" y="530.75" width="28.28" height="27.72"/><rect class="cls-24" x="414.97" y="530.43" width="28.28" height="27.72"/><rect class="cls-25" x="415.33" y="530.11" width="28.28" height="27.72"/><rect class="cls-25" x="415.69" y="529.8" width="28.28" height="27.72"/><rect class="cls-26" x="416.06" y="529.48" width="28.28" height="27.72"/><rect class="cls-27" x="416.42" y="529.16" width="28.28" height="27.72"/><rect class="cls-28" x="416.78" y="528.84" width="28.28" height="27.72"/><rect class="cls-29" x="417.14" y="528.53" width="28.28" height="27.72"/><rect class="cls-30" x="417.51" y="528.21" width="28.28" height="27.72"/><rect class="cls-31" x="417.87" y="527.89" width="28.28" height="27.72"/><rect class="cls-32" x="418.23" y="527.58" width="28.28" height="27.72"/><rect class="cls-33" x="418.59" y="527.26" width="28.28" height="27.72"/><rect class="cls-34" x="418.96" y="526.94" width="28.28" height="27.72"/><rect class="cls-35" x="419.32" y="526.62" width="28.28" height="27.72"/><rect class="cls-36" x="419.68" y="526.31" width="28.28" height="27.72"/><rect class="cls-37" x="420.04" y="525.99" width="28.28" height="27.72"/><rect class="cls-38" x="420.41" y="525.67" width="28.28" height="27.72"/><rect class="cls-39" x="420.77" y="525.35" width="28.28" height="27.72"/><rect class="cls-40" x="421.13" y="525.04" width="28.28" height="27.72"/><rect class="cls-41" x="421.49" y="524.72" width="28.28" height="27.72"/><rect class="cls-42" x="421.86" y="524.4" width="28.28" height="27.72"/><rect class="cls-43" x="422.22" y="524.08" width="28.28" height="27.72"/><rect class="cls-44" x="422.58" y="523.77" width="28.28" height="27.72"/></g><g class="cls-46"><rect class="cls-5" x="364.17" y="586.27" width="29.64" height="29.05"/><rect class="cls-7" x="364.55" y="585.93" width="29.64" height="29.05"/><rect class="cls-8" x="364.93" y="585.6" width="29.64" height="29.05"/><rect class="cls-9" x="365.31" y="585.27" width="29.64" height="29.05"/><rect class="cls-10" x="365.69" y="584.94" width="29.64" height="29.05"/><rect class="cls-11" x="366.07" y="584.6" width="29.64" height="29.05"/><rect class="cls-12" x="366.45" y="584.27" width="29.64" height="29.05"/><rect class="cls-13" x="366.83" y="583.94" width="29.64" height="29.05"/><rect class="cls-14" x="367.21" y="583.61" width="29.64" height="29.05"/><rect class="cls-15" x="367.59" y="583.27" width="29.64" height="29.05"/><rect class="cls-16" x="367.97" y="582.94" width="29.64" height="29.05"/><rect class="cls-17" x="368.35" y="582.61" width="29.64" height="29.05"/><rect class="cls-18" x="368.73" y="582.28" width="29.64" height="29.05"/><rect class="cls-19" x="369.11" y="581.94" width="29.64" height="29.05"/><rect class="cls-20" x="369.49" y="581.61" width="29.64" height="29.05"/><rect class="cls-21" x="369.87" y="581.28" width="29.64" height="29.05"/><rect class="cls-22" x="370.25" y="580.95" width="29.64" height="29.05"/><rect class="cls-23" x="370.63" y="580.61" width="29.64" height="29.05"/><rect class="cls-24" x="371.01" y="580.28" width="29.64" height="29.05"/><rect class="cls-25" x="371.39" y="579.95" width="29.64" height="29.05"/><rect class="cls-25" x="371.77" y="579.62" width="29.64" height="29.05"/><rect class="cls-26" x="372.15" y="579.28" width="29.64" height="29.05"/><rect class="cls-27" x="372.53" y="578.95" width="29.64" height="29.05"/><rect class="cls-28" x="372.91" y="578.62" width="29.64" height="29.05"/><rect class="cls-29" x="373.29" y="578.29" width="29.64" height="29.05"/><rect class="cls-30" x="373.67" y="577.95" width="29.64" height="29.05"/><rect class="cls-31" x="374.05" y="577.62" width="29.64" height="29.05"/><rect class="cls-32" x="374.43" y="577.29" width="29.64" height="29.05"/><rect class="cls-33" x="374.81" y="576.96" width="29.64" height="29.05"/><rect class="cls-34" x="375.19" y="576.62" width="29.64" height="29.05"/><rect class="cls-35" x="375.57" y="576.29" width="29.64" height="29.05"/><rect class="cls-36" x="375.95" y="575.96" width="29.64" height="29.05"/><rect class="cls-37" x="376.33" y="575.63" width="29.64" height="29.05"/><rect class="cls-38" x="376.71" y="575.29" width="29.64" height="29.05"/><rect class="cls-39" x="377.09" y="574.96" width="29.64" height="29.05"/><rect class="cls-40" x="377.47" y="574.63" width="29.64" height="29.05"/><rect class="cls-41" x="377.85" y="574.3" width="29.64" height="29.05"/><rect class="cls-42" x="378.23" y="573.96" width="29.64" height="29.05"/><rect class="cls-43" x="378.61" y="573.63" width="29.64" height="29.05"/><rect class="cls-44" x="378.99" y="573.3" width="29.64" height="29.05"/></g><g class="cls-46"><rect class="cls-5" x="6.4" y="443.72" width="29.64" height="29.05"/><rect class="cls-7" x="6.78" y="443.39" width="29.64" height="29.05"/><rect class="cls-8" x="7.16" y="443.06" width="29.64" height="29.05"/><rect class="cls-9" x="7.54" y="442.73" width="29.64" height="29.05"/><rect class="cls-10" x="7.92" y="442.39" width="29.64" height="29.05"/><rect class="cls-11" x="8.3" y="442.06" width="29.64" height="29.05"/><rect class="cls-12" x="8.68" y="441.73" width="29.64" height="29.05"/><rect class="cls-13" x="9.06" y="441.4" width="29.64" height="29.05"/><rect class="cls-14" x="9.44" y="441.06" width="29.64" height="29.05"/><rect class="cls-15" x="9.82" y="440.73" width="29.64" height="29.05"/><rect class="cls-16" x="10.2" y="440.4" width="29.64" height="29.05"/><rect class="cls-17" x="10.58" y="440.06" width="29.64" height="29.05"/><rect class="cls-18" x="10.96" y="439.73" width="29.64" height="29.05"/><rect class="cls-19" x="11.34" y="439.4" width="29.64" height="29.05"/><rect class="cls-20" x="11.72" y="439.07" width="29.64" height="29.05"/><rect class="cls-21" x="12.1" y="438.73" width="29.64" height="29.05"/><rect class="cls-22" x="12.48" y="438.4" width="29.64" height="29.05"/><rect class="cls-23" x="12.86" y="438.07" width="29.64" height="29.05"/><rect class="cls-24" x="13.24" y="437.74" width="29.64" height="29.05"/><rect class="cls-25" x="13.62" y="437.4" width="29.64" height="29.05"/><rect class="cls-25" x="14" y="437.07" width="29.64" height="29.05"/><rect class="cls-26" x="14.38" y="436.74" width="29.64" height="29.05"/><rect class="cls-27" x="14.76" y="436.41" width="29.64" height="29.05"/><rect class="cls-28" x="15.14" y="436.07" width="29.64" height="29.05"/><rect class="cls-29" x="15.52" y="435.74" width="29.64" height="29.05"/><rect class="cls-30" x="15.9" y="435.41" width="29.64" height="29.05"/><rect class="cls-31" x="16.28" y="435.08" width="29.64" height="29.05"/><rect class="cls-32" x="16.66" y="434.74" width="29.64" height="29.05"/><rect class="cls-33" x="17.04" y="434.41" width="29.64" height="29.05"/><rect class="cls-34" x="17.42" y="434.08" width="29.64" height="29.05"/><rect class="cls-35" x="17.8" y="433.75" width="29.64" height="29.05"/><rect class="cls-36" x="18.18" y="433.41" width="29.64" height="29.05"/><rect class="cls-37" x="18.56" y="433.08" width="29.64" height="29.05"/><rect class="cls-38" x="18.94" y="432.75" width="29.64" height="29.05"/><rect class="cls-39" x="19.32" y="432.42" width="29.64" height="29.05"/><rect class="cls-40" x="19.7" y="432.08" width="29.64" height="29.05"/><rect class="cls-41" x="20.08" y="431.75" width="29.64" height="29.05"/><rect class="cls-42" x="20.46" y="431.42" width="29.64" height="29.05"/><rect class="cls-43" x="20.84" y="431.09" width="29.64" height="29.05"/><rect class="cls-44" x="21.22" y="430.75" width="29.64" height="29.05"/></g><g class="cls-46"><rect class="cls-5" x="1032.35" y="27.06" width="58.15" height="57"/><polygon class="cls-7" points="1089.76 27.71 1031.61 27.71 1032.35 83.95 1089.76 84.71 1089.76 27.71"/><polygon class="cls-8" points="1089.01 28.36 1030.86 28.36 1032.35 83.84 1089.01 85.36 1089.01 28.36"/><polygon class="cls-9" points="1088.27 29.01 1030.12 29.01 1032.35 83.73 1088.27 86.01 1088.27 29.01"/><polygon class="cls-10" points="1087.52 29.67 1029.37 29.67 1032.35 83.62 1087.52 86.67 1087.52 29.67"/><polygon class="cls-11" points="1086.78 30.32 1028.62 30.32 1032.35 83.51 1086.78 87.32 1086.78 30.32"/><polygon class="cls-12" points="1086.03 30.97 1027.88 30.97 1032.35 83.4 1086.03 87.97 1086.03 30.97"/><polygon class="cls-13" points="1085.29 31.62 1027.13 31.62 1032.35 83.3 1085.29 88.62 1085.29 31.62"/><polygon class="cls-14" points="1084.54 32.27 1026.39 32.27 1032.35 83.19 1084.54 89.28 1084.54 32.27"/><polygon class="cls-15" points="1083.8 32.93 1025.64 32.93 1032.35 83.08 1083.8 89.93 1083.8 32.93"/><polygon class="cls-16" points="1083.05 33.58 1024.9 33.58 1032.35 82.97 1083.05 90.58 1083.05 33.58"/><polygon class="cls-17" points="1082.3 34.23 1024.15 34.23 1032.35 82.86 1082.3 91.23 1082.3 34.23"/><polygon class="cls-18" points="1081.56 34.88 1023.41 34.88 1032.35 82.75 1081.56 91.88 1081.56 34.88"/><polygon class="cls-19" points="1080.81 35.54 1022.66 35.54 1032.35 82.64 1080.81 92.54 1080.81 35.54"/><polygon class="cls-20" points="1080.07 36.19 1021.91 36.19 1032.35 82.53 1080.07 93.19 1080.07 36.19"/><polygon class="cls-21" points="1079.32 36.84 1021.17 36.84 1032.35 82.43 1079.32 93.84 1079.32 36.84"/><polygon class="cls-22" points="1078.58 37.49 1020.42 37.49 1032.35 82.32 1078.58 94.49 1078.58 37.49"/><polygon class="cls-23" points="1077.83 38.15 1019.68 38.15 1032.35 82.21 1077.83 95.15 1077.83 38.15"/><polygon class="cls-24" points="1077.09 38.8 1018.93 38.8 1032.35 82.1 1077.09 95.8 1077.09 38.8"/><polygon class="cls-25" points="1076.34 39.45 1018.19 39.45 1032.35 81.99 1076.34 96.45 1076.34 39.45"/><polygon class="cls-25" points="1075.59 40.1 1017.44 40.1 1032.35 81.88 1075.59 97.1 1075.59 40.1"/><polygon class="cls-26" points="1074.85 40.76 1016.7 40.76 1032.35 81.77 1074.85 97.75 1074.85 40.76"/><polygon class="cls-27" points="1074.1 41.41 1015.95 41.41 1032.35 81.67 1074.1 98.41 1074.1 41.41"/><polygon class="cls-28" points="1073.36 42.06 1015.2 42.06 1032.35 81.56 1073.36 99.06 1073.36 42.06"/><polygon class="cls-29" points="1072.61 42.71 1014.46 42.71 1032.35 81.45 1072.61 99.71 1072.61 42.71"/><polygon class="cls-30" points="1071.87 43.37 1013.71 43.37 1032.35 81.34 1071.87 100.36 1071.87 43.37"/><polygon class="cls-31" points="1071.12 44.02 1012.97 44.02 1032.35 81.23 1071.12 101.02 1071.12 44.02"/><polygon class="cls-32" points="1070.38 44.67 1012.22 44.67 1032.35 81.12 1070.38 101.67 1070.38 44.67"/><polygon class="cls-33" points="1069.63 45.32 1011.48 45.32 1032.35 81.01 1069.63 102.32 1069.63 45.32"/><polygon class="cls-34" points="1068.88 45.98 1010.73 45.98 1032.35 80.91 1068.88 102.97 1068.88 45.98"/><polygon class="cls-35" points="1068.14 46.63 1009.99 46.63 1032.35 80.8 1068.14 103.63 1068.14 46.63"/><polygon class="cls-36" points="1067.39 47.28 1009.24 47.28 1032.35 80.69 1067.39 104.28 1067.39 47.28"/><polygon class="cls-37" points="1066.65 47.93 1008.49 47.93 1032.35 80.58 1066.65 104.93 1066.65 47.93"/><polygon class="cls-38" points="1065.9 48.58 1007.75 48.58 1032.35 80.47 1065.9 105.58 1065.9 48.58"/><polygon class="cls-39" points="1065.16 49.24 1007 49.24 1032.35 80.36 1065.16 106.24 1065.16 49.24"/><polygon class="cls-40" points="1064.41 49.89 1006.26 49.89 1032.35 80.25 1064.41 106.89 1064.41 49.89"/><polygon class="cls-41" points="1063.66 50.54 1005.51 50.54 1032.35 80.14 1063.66 107.54 1063.66 50.54"/><polygon class="cls-42" points="1062.92 51.19 1004.77 51.19 1032.35 80.04 1062.92 108.19 1062.92 51.19"/><polygon class="cls-43" points="1062.17 51.85 1004.02 51.85 1032.35 79.93 1062.17 108.85 1062.17 51.85"/><polygon class="cls-44" points="1003.27 52.5 1032.35 79.82 1061.43 109.5 1061.43 52.5 1003.27 52.5"/></g><g class="cls-47"><path class="cls-5" d="M78,298.19c-30.25,3-53.51,30.43-53.51,63.79S47.77,422.75,78,425.78Zm6,134L80.89,432c-35-1.53-62.38-32.29-62.38-70s27.4-68.48,62.38-70l3.13-.14Z"/><path class="cls-7" d="M78.41,297.86c-30.25,3-53.51,30.43-53.51,63.8s23.26,60.76,53.51,63.8Zm6,134-3.13-.14c-35-1.54-62.38-32.29-62.38-70s27.4-68.48,62.38-70l3.13-.13Z"/><path class="cls-8" d="M78.8,297.54c-30.25,3-53.51,30.43-53.51,63.8s23.26,60.76,53.51,63.8Zm6,134-3.13-.14c-35-1.53-62.38-32.28-62.38-70s27.4-68.49,62.38-70l3.13-.13Z"/><path class="cls-9" d="M79.19,297.22c-30.25,3-53.51,30.43-53.51,63.8s23.26,60.76,53.51,63.79Zm6,134L82.06,431c-35-1.53-62.38-32.29-62.38-70s27.4-68.49,62.38-70l3.13-.14Z"/><path class="cls-10" d="M79.58,296.9c-30.25,3-53.51,30.43-53.51,63.79s23.26,60.77,53.51,63.8Zm6,134-3.13-.14c-35-1.53-62.38-32.29-62.38-70s27.4-68.48,62.38-70l3.13-.14Z"/><path class="cls-11" d="M80,296.57c-30.26,3-53.51,30.43-53.51,63.8S49.71,421.13,80,424.17Zm6,134-3.13-.13c-35-1.54-62.38-32.29-62.38-70s27.4-68.48,62.38-70l3.13-.13Z"/><path class="cls-12" d="M80.36,296.25c-30.26,3-53.51,30.43-53.51,63.8s23.25,60.76,53.51,63.79Zm6,134-3.13-.14c-35-1.53-62.38-32.28-62.38-70s27.4-68.49,62.38-70l3.13-.14Z"/><path class="cls-13" d="M80.75,295.93c-30.26,3-53.51,30.43-53.51,63.8s23.25,60.76,53.51,63.79Zm6,134-3.14-.14c-35-1.53-62.37-32.29-62.37-70s27.4-68.49,62.37-70l3.14-.14Z"/><path class="cls-14" d="M81.14,295.61c-30.26,3-53.52,30.43-53.52,63.79s23.26,60.77,53.52,63.8Zm6,134L84,429.42c-35-1.53-62.38-32.29-62.38-70S49,290.92,84,289.39l3.14-.14Z"/><path class="cls-15" d="M81.52,295.28c-30.25,3-53.51,30.43-53.51,63.8s23.26,60.76,53.51,63.8Zm6,134-3.13-.13c-35-1.54-62.38-32.29-62.38-70s27.4-68.48,62.38-70l3.13-.13Z"/><path class="cls-16" d="M81.91,295c-30.25,3-53.51,30.43-53.51,63.8s23.26,60.76,53.51,63.79Zm6,134-3.13-.14c-35-1.53-62.38-32.28-62.38-70s27.4-68.49,62.38-70l3.13-.14Z"/><path class="cls-17" d="M82.3,294.64c-30.25,3-53.51,30.43-53.51,63.79s23.26,60.77,53.51,63.8Zm6,134-3.13-.14c-35-1.53-62.38-32.29-62.38-70s27.4-68.48,62.38-70l3.13-.14Z"/><path class="cls-18" d="M82.69,294.32c-30.25,3-53.51,30.43-53.51,63.79s23.26,60.76,53.51,63.8Zm6,134-3.13-.14c-35-1.53-62.38-32.29-62.38-70s27.4-68.48,62.38-70l3.13-.14Z"/><path class="cls-19" d="M83.08,294c-30.25,3-53.51,30.43-53.51,63.8s23.26,60.76,53.51,63.8Zm6,134L86,427.81c-35-1.54-62.38-32.29-62.38-70S51,289.31,86,287.77l3.13-.13Z"/><path class="cls-20" d="M83.47,293.67C53.22,296.7,30,324.1,30,357.47s23.26,60.76,53.51,63.79Zm6,134-3.13-.14C51.36,426,24,395.2,24,357.47s27.4-68.49,62.38-70l3.13-.14Z"/><path class="cls-21" d="M83.86,293.35c-30.25,3-53.51,30.43-53.51,63.79s23.26,60.77,53.51,63.8Zm6,134-3.13-.14c-35-1.53-62.38-32.29-62.38-70s27.4-68.48,62.38-70l3.13-.14Z"/><path class="cls-22" d="M84.25,293c-30.25,3-53.51,30.42-53.51,63.79S54,417.58,84.25,420.62Zm6,134-3.13-.14c-35-1.53-62.38-32.29-62.38-70s27.4-68.48,62.38-70l3.13-.14Z"/><path class="cls-23" d="M84.64,292.7c-30.25,3-53.51,30.43-53.51,63.8s23.26,60.76,53.51,63.8Zm6,134-3.13-.13c-35-1.54-62.38-32.29-62.38-70s27.4-68.48,62.38-70l3.13-.13Z"/><path class="cls-24" d="M85,292.38c-30.25,3-53.51,30.43-53.51,63.8S54.78,416.94,85,420Zm6,134-3.13-.14c-35-1.53-62.38-32.28-62.38-70s27.4-68.49,62.38-70L91,286Z"/><path class="cls-25" d="M85.42,292.06c-30.25,3-53.51,30.43-53.51,63.79s23.26,60.77,53.51,63.8Zm6,134-3.13-.14c-35-1.53-62.38-32.29-62.38-70s27.4-68.48,62.38-70l3.13-.14Z"/><path class="cls-25" d="M85.81,291.73c-30.25,3-53.51,30.43-53.51,63.8s23.26,60.76,53.51,63.8Zm6,134-3.13-.14c-35-1.54-62.38-32.29-62.38-70s27.4-68.48,62.38-70l3.13-.14Z"/><path class="cls-26" d="M86.2,291.41c-30.25,3-53.51,30.43-53.51,63.8S56,416,86.2,419Zm6,134-3.13-.13c-35-1.54-62.38-32.29-62.38-70s27.4-68.48,62.38-70l3.13-.13Z"/><path class="cls-27" d="M86.59,291.09c-30.25,3-53.51,30.43-53.51,63.8s23.26,60.76,53.51,63.79Zm6,134-3.13-.14c-35-1.53-62.38-32.29-62.38-70s27.4-68.49,62.38-70l3.13-.14Z"/><path class="cls-28" d="M87,290.77c-30.25,3-53.51,30.43-53.51,63.79S56.73,415.33,87,418.36Zm6,134-3.13-.14c-35-1.53-62.38-32.29-62.38-70s27.4-68.48,62.38-70l3.13-.14Z"/><path class="cls-29" d="M87.37,290.44c-30.26,3-53.51,30.43-53.51,63.8S57.11,415,87.37,418Zm6,134-3.13-.14c-35-1.54-62.38-32.29-62.38-70s27.4-68.48,62.38-70l3.13-.13Z"/><path class="cls-30" d="M87.76,290.12c-30.26,3-53.51,30.43-53.51,63.8s23.25,60.76,53.51,63.79Zm6,134-3.14-.14c-35-1.53-62.37-32.28-62.37-70s27.4-68.49,62.37-70l3.14-.14Z"/><path class="cls-31" d="M88.15,289.8c-30.26,3-53.52,30.43-53.52,63.8s23.26,60.76,53.52,63.79Zm6,134L91,423.61c-35-1.53-62.38-32.29-62.38-70S56,285.11,91,283.58l3.14-.14Z"/><path class="cls-32" d="M88.53,289.48C58.28,292.51,35,319.91,35,353.27S58.28,414,88.53,417.07Zm6,134-3.13-.14C56.42,421.76,29,391,29,353.27s27.4-68.48,62.38-70l3.13-.14Z"/><path class="cls-33" d="M88.92,289.15c-30.25,3-53.51,30.43-53.51,63.8s23.26,60.76,53.51,63.8Zm6,134L91.79,423c-35-1.54-62.38-32.29-62.38-70s27.4-68.48,62.38-70l3.13-.13Z"/><path class="cls-34" d="M89.31,288.83c-30.25,3-53.51,30.43-53.51,63.8s23.26,60.76,53.51,63.79Zm6,134-3.13-.14c-35-1.53-62.38-32.28-62.38-70s27.4-68.49,62.38-70l3.13-.14Z"/><path class="cls-35" d="M89.7,288.51c-30.25,3-53.51,30.43-53.51,63.8S59.45,413.07,89.7,416.1Zm6,134-3.13-.14c-35-1.53-62.38-32.29-62.38-70s27.4-68.49,62.38-70l3.13-.14Z"/><path class="cls-36" d="M90.09,288.19c-30.25,3-53.51,30.43-53.51,63.79s23.26,60.77,53.51,63.8Zm6,134L93,422c-35-1.53-62.38-32.29-62.38-70S58,283.5,93,282l3.13-.14Z"/><path class="cls-37" d="M90.48,287.86C60.23,290.9,37,318.29,37,351.66s23.26,60.76,53.51,63.8Zm6,134-3.13-.13c-35-1.54-62.38-32.29-62.38-70s27.4-68.48,62.38-70l3.13-.13Z"/><path class="cls-38" d="M90.87,287.54c-30.25,3-53.51,30.43-53.51,63.8s23.26,60.76,53.51,63.79Zm6,134-3.13-.14c-35-1.53-62.38-32.28-62.38-70s27.4-68.49,62.38-70l3.13-.14Z"/><path class="cls-39" d="M91.26,287.22C61,290.25,37.75,317.65,37.75,351S61,411.78,91.26,414.81Zm6,134L94.13,421c-35-1.53-62.38-32.29-62.38-70s27.4-68.48,62.38-70l3.13-.14Z"/><path class="cls-40" d="M91.65,286.9c-30.25,3-53.51,30.43-53.51,63.79s23.26,60.76,53.51,63.8Zm6,134-3.13-.14c-35-1.53-62.38-32.29-62.38-70s27.4-68.48,62.38-70l3.13-.14Z"/><path class="cls-41" d="M92,286.57c-30.25,3-53.51,30.43-53.51,63.8S61.79,411.13,92,414.17Zm6,134-3.13-.13c-35-1.54-62.38-32.29-62.38-70s27.4-68.48,62.38-70l3.13-.13Z"/><path class="cls-42" d="M92.43,286.25c-30.25,3-53.51,30.43-53.51,63.8s23.26,60.76,53.51,63.79Zm6,134-3.13-.14c-35-1.53-62.38-32.28-62.38-70s27.4-68.49,62.38-70l3.13-.14Z"/><path class="cls-43" d="M92.82,285.93c-30.25,3-53.51,30.43-53.51,63.79s23.26,60.77,53.51,63.8Zm6,134-3.13-.14c-35-1.53-62.38-32.29-62.38-70s27.4-68.48,62.38-70l3.13-.14Z"/><path class="cls-44" d="M93.21,285.6C63,288.64,39.7,316,39.7,349.4S63,410.16,93.21,413.2Zm6,134-3.13-.14c-35-1.54-62.38-32.29-62.38-70s27.4-68.48,62.38-70l3.13-.14Z"/></g><g class="cls-47"><polygon class="cls-5" points="-24.95 655.56 -24.95 642.71 149.45 405.38 154.65 412.98 -24.95 655.56"/><polygon class="cls-7" points="-24.31 655.65 -24.31 642.79 150.11 405.45 155.29 413.07 -24.31 655.65"/><polygon class="cls-8" points="-23.67 655.74 -23.67 642.88 150.76 405.52 155.93 413.16 -23.67 655.74"/><polygon class="cls-9" points="-23.03 655.83 -23.03 642.98 151.43 405.58 156.57 413.25 -23.03 655.83"/><polygon class="cls-10" points="-22.39 655.92 -22.39 643.06 152.08 405.65 157.21 413.34 -22.39 655.92"/><polygon class="cls-11" points="-21.75 656.01 -21.75 643.15 152.74 405.72 157.85 413.43 -21.75 656.01"/><polygon class="cls-12" points="-21.11 656.1 -21.11 643.24 153.4 405.79 158.49 413.52 -21.11 656.1"/><polygon class="cls-13" points="-20.47 656.19 -20.47 643.33 154.06 405.86 159.13 413.61 -20.47 656.19"/><polygon class="cls-14" points="-19.83 656.28 -19.83 643.42 154.72 405.92 159.77 413.7 -19.83 656.28"/><polygon class="cls-15" points="-19.19 656.37 -19.19 643.51 155.38 405.99 160.41 413.79 -19.19 656.37"/><polygon class="cls-16" points="-18.55 656.46 -18.55 643.6 156.04 406.06 161.04 413.88 -18.55 656.46"/><polygon class="cls-17" points="-17.91 656.55 -17.91 643.69 156.7 406.13 161.69 413.97 -17.91 656.55"/><polygon class="cls-18" points="-17.27 656.64 -17.27 643.78 157.36 406.19 162.32 414.06 -17.27 656.64"/><polygon class="cls-19" points="-16.63 656.73 -16.63 643.87 158.02 406.26 162.96 414.15 -16.63 656.73"/><polygon class="cls-20" points="-15.99 656.82 -15.99 643.96 158.68 406.33 163.6 414.24 -15.99 656.82"/><polygon class="cls-21" points="-15.35 656.91 -15.35 644.05 159.34 406.4 164.24 414.33 -15.35 656.91"/><polygon class="cls-22" points="-14.71 657 -14.71 644.14 160 406.47 164.88 414.42 -14.71 657"/><polygon class="cls-23" points="-14.07 657.09 -14.07 644.23 160.66 406.53 165.52 414.5 -14.07 657.09"/><polygon class="cls-24" points="-13.43 657.18 -13.43 644.32 161.31 406.6 166.16 414.59 -13.43 657.18"/><polygon class="cls-25" points="-12.79 657.27 -12.79 644.41 161.97 406.67 166.8 414.68 -12.79 657.27"/><polygon class="cls-25" points="-12.15 657.36 -12.15 644.5 162.63 406.74 167.44 414.77 -12.15 657.36"/><polygon class="cls-26" points="-11.51 657.45 -11.51 644.59 163.29 406.81 168.08 414.86 -11.51 657.45"/><polygon class="cls-27" points="-10.87 657.54 -10.87 644.68 163.95 406.87 168.72 414.95 -10.87 657.54"/><polygon class="cls-28" points="-10.23 657.63 -10.23 644.77 164.61 406.94 169.36 415.04 -10.23 657.63"/><polygon class="cls-29" points="-9.6 657.72 -9.6 644.86 165.27 407.01 170 415.13 -9.6 657.72"/><polygon class="cls-30" points="-8.96 657.8 -8.96 644.95 165.93 407.07 170.64 415.22 -8.96 657.8"/><polygon class="cls-31" points="-8.31 657.89 -8.31 645.04 166.59 407.14 171.28 415.31 -8.31 657.89"/><polygon class="cls-32" points="-7.68 657.98 -7.68 645.13 167.25 407.21 171.92 415.4 -7.68 657.98"/><polygon class="cls-33" points="-7.04 658.07 -7.04 645.22 167.91 407.28 172.56 415.49 -7.04 658.07"/><polygon class="cls-34" points="-6.4 658.16 -6.4 645.3 168.57 407.35 173.2 415.58 -6.4 658.16"/><polygon class="cls-35" points="-5.76 658.25 -5.76 645.39 169.23 407.41 173.84 415.67 -5.76 658.25"/><polygon class="cls-36" points="-5.12 658.34 -5.12 645.48 169.88 407.48 174.48 415.76 -5.12 658.34"/><polygon class="cls-37" points="-4.48 658.43 -4.48 645.57 170.54 407.55 175.12 415.85 -4.48 658.43"/><polygon class="cls-38" points="-3.84 658.52 -3.84 645.66 171.2 407.62 175.76 415.94 -3.84 658.52"/><polygon class="cls-39" points="-3.2 658.61 -3.2 645.75 171.86 407.69 176.4 416.03 -3.2 658.61"/><polygon class="cls-40" points="-2.56 658.7 -2.56 645.84 172.52 407.75 177.04 416.12 -2.56 658.7"/><polygon class="cls-41" points="-1.92 658.79 -1.92 645.93 173.18 407.82 177.68 416.21 -1.92 658.79"/><polygon class="cls-42" points="-1.28 658.88 -1.28 646.02 173.84 407.89 178.31 416.3 -1.28 658.88"/><polygon class="cls-43" points="-0.64 658.97 -0.64 646.11 174.5 407.96 178.96 416.39 -0.64 658.97"/><polygon class="cls-44" points="0 659.06 0 646.2 175.16 408.02 179.59 416.48 0 659.06"/></g></g></g><g id="Objects"><g class="cls-4"><rect class="cls-48" x="692.4" y="125.78" width="16.77" height="16.44"/><rect class="cls-25" x="665.34" y="75.32" width="11.43" height="11.2"/><rect class="cls-5" x="736.33" y="63.99" width="23.93" height="23.45"/><path class="cls-44" d="M830,78.52V111.3h33.44V78.52ZM855,86.71V103.1H838.31V86.71Z"/><rect class="cls-5" x="838.31" y="86.71" width="16.72" height="16.39"/><rect class="cls-44" x="1003.28" y="90.78" width="19.1" height="18.72" transform="translate(2025.65 200.28) rotate(180)"/><rect class="cls-5" x="1033.92" y="128.88" width="14.63" height="14.34" transform="translate(2082.48 272.1) rotate(180)"/><rect class="cls-5" x="1032.83" y="80.52" width="28.69" height="29.27" transform="translate(952.02 1142.33) rotate(-90)"/><rect class="cls-5" x="1032.83" y="51.83" width="28.69" height="29.27" transform="translate(980.71 1113.64) rotate(-90)"/><rect class="cls-5" x="1003.57" y="51.83" width="28.69" height="29.27" transform="translate(951.44 1084.38) rotate(-90)"/><path class="cls-48" d="M144.93,618.78a2.6,2.6,0,1,1,2.6-2.6A2.6,2.6,0,0,1,144.93,618.78Z"/><path class="cls-48" d="M144.93,638.36a2.6,2.6,0,1,1,2.6-2.6A2.61,2.61,0,0,1,144.93,638.36Z"/><path class="cls-48" d="M144.93,657.93a2.6,2.6,0,1,1,2.6-2.6A2.6,2.6,0,0,1,144.93,657.93Z"/><path class="cls-48" d="M144.93,677.51a2.6,2.6,0,1,1,2.6-2.6A2.61,2.61,0,0,1,144.93,677.51Z"/><path class="cls-48" d="M144.93,697.08a2.6,2.6,0,1,1,2.6-2.6A2.6,2.6,0,0,1,144.93,697.08Z"/><path class="cls-48" d="M144.93,716.66a2.6,2.6,0,1,1,2.6-2.6A2.61,2.61,0,0,1,144.93,716.66Z"/><path class="cls-48" d="M115.63,618.78a2.6,2.6,0,1,1,2.6-2.6A2.59,2.59,0,0,1,115.63,618.78Z"/><path class="cls-48" d="M115.63,638.36a2.6,2.6,0,1,1,2.6-2.6A2.6,2.6,0,0,1,115.63,638.36Z"/><path class="cls-48" d="M115.63,657.93a2.6,2.6,0,1,1,2.6-2.6A2.59,2.59,0,0,1,115.63,657.93Z"/><path class="cls-48" d="M115.63,677.51a2.6,2.6,0,1,1,2.6-2.6A2.6,2.6,0,0,1,115.63,677.51Z"/><path class="cls-48" d="M115.63,697.08a2.6,2.6,0,1,1,2.6-2.6A2.59,2.59,0,0,1,115.63,697.08Z"/><path class="cls-48" d="M115.63,716.66a2.6,2.6,0,1,1,2.6-2.6A2.6,2.6,0,0,1,115.63,716.66Z"/><path class="cls-48" d="M86.32,618.78a2.6,2.6,0,1,1,2.6-2.6A2.59,2.59,0,0,1,86.32,618.78Z"/><path class="cls-48" d="M86.32,638.36a2.6,2.6,0,1,1,2.6-2.6A2.6,2.6,0,0,1,86.32,638.36Z"/><path class="cls-48" d="M86.32,657.93a2.6,2.6,0,1,1,2.6-2.6A2.59,2.59,0,0,1,86.32,657.93Z"/><path class="cls-48" d="M86.32,677.51a2.6,2.6,0,1,1,2.6-2.6A2.6,2.6,0,0,1,86.32,677.51Z"/><path class="cls-48" d="M86.32,697.08a2.6,2.6,0,1,1,2.6-2.6A2.59,2.59,0,0,1,86.32,697.08Z"/><path class="cls-48" d="M86.32,716.66a2.6,2.6,0,1,1,2.6-2.6A2.6,2.6,0,0,1,86.32,716.66Z"/><path class="cls-5" d="M1174.76,193.29a2.6,2.6,0,1,1,2.59-2.59A2.59,2.59,0,0,1,1174.76,193.29Z"/><path class="cls-5" d="M1174.76,212.87a2.6,2.6,0,1,1,2.59-2.6A2.59,2.59,0,0,1,1174.76,212.87Z"/><path class="cls-5" d="M1174.76,232.44a2.6,2.6,0,1,1,2.59-2.6A2.59,2.59,0,0,1,1174.76,232.44Z"/><path class="cls-5" d="M1174.76,252a2.6,2.6,0,1,1,2.59-2.6A2.59,2.59,0,0,1,1174.76,252Z"/><path class="cls-5" d="M1174.76,271.59a2.6,2.6,0,1,1,2.59-2.6A2.59,2.59,0,0,1,1174.76,271.59Z"/><path class="cls-5" d="M1174.76,291.17a2.6,2.6,0,1,1,2.59-2.6A2.59,2.59,0,0,1,1174.76,291.17Z"/><path class="cls-5" d="M1145.45,193.29a2.6,2.6,0,1,1,2.6-2.59A2.59,2.59,0,0,1,1145.45,193.29Z"/><path class="cls-5" d="M1145.45,212.87a2.6,2.6,0,1,1,2.6-2.6A2.59,2.59,0,0,1,1145.45,212.87Z"/><path class="cls-5" d="M1145.45,232.44a2.6,2.6,0,1,1,2.6-2.6A2.59,2.59,0,0,1,1145.45,232.44Z"/><path class="cls-5" d="M1145.45,252a2.6,2.6,0,1,1,2.6-2.6A2.59,2.59,0,0,1,1145.45,252Z"/><path class="cls-5" d="M1145.45,271.59a2.6,2.6,0,1,1,2.6-2.6A2.59,2.59,0,0,1,1145.45,271.59Z"/><path class="cls-5" d="M1145.45,291.17a2.6,2.6,0,1,1,2.6-2.6A2.59,2.59,0,0,1,1145.45,291.17Z"/><path class="cls-5" d="M1116.14,193.29a2.6,2.6,0,1,1,2.6-2.59A2.6,2.6,0,0,1,1116.14,193.29Z"/><path class="cls-5" d="M1116.14,212.87a2.6,2.6,0,1,1,2.6-2.6A2.6,2.6,0,0,1,1116.14,212.87Z"/><path class="cls-5" d="M1116.14,232.44a2.6,2.6,0,1,1,2.6-2.6A2.6,2.6,0,0,1,1116.14,232.44Z"/><path class="cls-5" d="M1116.14,252a2.6,2.6,0,1,1,2.6-2.6A2.6,2.6,0,0,1,1116.14,252Z"/><path class="cls-5" d="M1116.14,271.59a2.6,2.6,0,1,1,2.6-2.6A2.6,2.6,0,0,1,1116.14,271.59Z"/><path class="cls-5" d="M1116.14,291.17a2.6,2.6,0,1,1,2.6-2.6A2.6,2.6,0,0,1,1116.14,291.17Z"/><path class="cls-44" d="M373.74,719.63a2.6,2.6,0,1,1-2.6-2.6A2.6,2.6,0,0,1,373.74,719.63Z"/><path class="cls-44" d="M393.31,719.63a2.6,2.6,0,1,1-2.6-2.6A2.59,2.59,0,0,1,393.31,719.63Z"/><path class="cls-44" d="M412.89,719.63a2.6,2.6,0,1,1-2.6-2.6A2.6,2.6,0,0,1,412.89,719.63Z"/><path class="cls-44" d="M432.46,719.63a2.6,2.6,0,1,1-2.6-2.6A2.59,2.59,0,0,1,432.46,719.63Z"/><path class="cls-44" d="M452,719.63a2.6,2.6,0,1,1-2.6-2.6A2.6,2.6,0,0,1,452,719.63Z"/><path class="cls-44" d="M471.61,719.63A2.6,2.6,0,1,1,469,717,2.59,2.59,0,0,1,471.61,719.63Z"/><path class="cls-44" d="M373.74,748.94a2.6,2.6,0,1,1-2.6-2.6A2.61,2.61,0,0,1,373.74,748.94Z"/><path class="cls-44" d="M393.31,748.94a2.6,2.6,0,1,1-2.6-2.6A2.6,2.6,0,0,1,393.31,748.94Z"/><path class="cls-44" d="M412.89,748.94a2.6,2.6,0,1,1-2.6-2.6A2.61,2.61,0,0,1,412.89,748.94Z"/><path class="cls-44" d="M432.46,748.94a2.6,2.6,0,1,1-2.6-2.6A2.6,2.6,0,0,1,432.46,748.94Z"/><path class="cls-44" d="M452,748.94a2.6,2.6,0,1,1-2.6-2.6A2.61,2.61,0,0,1,452,748.94Z"/><path class="cls-44" d="M471.61,748.94a2.6,2.6,0,1,1-2.6-2.6A2.6,2.6,0,0,1,471.61,748.94Z"/><path class="cls-44" d="M373.74,778.24a2.6,2.6,0,1,1-2.6-2.6A2.6,2.6,0,0,1,373.74,778.24Z"/><path class="cls-44" d="M393.31,778.24a2.6,2.6,0,1,1-2.6-2.6A2.59,2.59,0,0,1,393.31,778.24Z"/><path class="cls-44" d="M412.89,778.24a2.6,2.6,0,1,1-2.6-2.6A2.6,2.6,0,0,1,412.89,778.24Z"/><path class="cls-44" d="M432.46,778.24a2.6,2.6,0,1,1-2.6-2.6A2.59,2.59,0,0,1,432.46,778.24Z"/><path class="cls-44" d="M452,778.24a2.6,2.6,0,1,1-2.6-2.6A2.6,2.6,0,0,1,452,778.24Z"/><path class="cls-44" d="M471.61,778.24a2.6,2.6,0,1,1-2.6-2.6A2.59,2.59,0,0,1,471.61,778.24Z"/><path class="cls-48" d="M619.79,34.73a2.6,2.6,0,1,1-2.6-2.6A2.6,2.6,0,0,1,619.79,34.73Z"/><path class="cls-48" d="M639.37,34.73a2.6,2.6,0,1,1-2.6-2.6A2.6,2.6,0,0,1,639.37,34.73Z"/><path class="cls-48" d="M658.94,34.73a2.6,2.6,0,1,1-2.6-2.6A2.6,2.6,0,0,1,658.94,34.73Z"/><path class="cls-48" d="M678.52,34.73a2.6,2.6,0,1,1-2.6-2.6A2.6,2.6,0,0,1,678.52,34.73Z"/><path class="cls-48" d="M698.09,34.73a2.6,2.6,0,1,1-2.6-2.6A2.6,2.6,0,0,1,698.09,34.73Z"/><path class="cls-48" d="M717.67,34.73a2.6,2.6,0,1,1-2.6-2.6A2.61,2.61,0,0,1,717.67,34.73Z"/><path class="cls-48" d="M619.79,64a2.6,2.6,0,1,1-2.6-2.6A2.6,2.6,0,0,1,619.79,64Z"/><path class="cls-48" d="M639.37,64a2.6,2.6,0,1,1-2.6-2.6A2.6,2.6,0,0,1,639.37,64Z"/><path class="cls-48" d="M658.94,64a2.6,2.6,0,1,1-2.6-2.6A2.6,2.6,0,0,1,658.94,64Z"/><path class="cls-48" d="M678.52,64a2.6,2.6,0,1,1-2.6-2.6A2.6,2.6,0,0,1,678.52,64Z"/><path class="cls-48" d="M698.09,64a2.6,2.6,0,1,1-2.6-2.6A2.6,2.6,0,0,1,698.09,64Z"/><path class="cls-48" d="M717.67,64a2.6,2.6,0,1,1-2.6-2.6A2.61,2.61,0,0,1,717.67,64Z"/><path class="cls-48" d="M619.79,93.34a2.6,2.6,0,1,1-2.6-2.6A2.59,2.59,0,0,1,619.79,93.34Z"/><path class="cls-48" d="M639.37,93.34a2.6,2.6,0,1,1-2.6-2.6A2.59,2.59,0,0,1,639.37,93.34Z"/><path class="cls-48" d="M658.94,93.34a2.6,2.6,0,1,1-2.6-2.6A2.59,2.59,0,0,1,658.94,93.34Z"/><path class="cls-48" d="M678.52,93.34a2.6,2.6,0,1,1-2.6-2.6A2.59,2.59,0,0,1,678.52,93.34Z"/><path class="cls-48" d="M698.09,93.34a2.6,2.6,0,1,1-2.6-2.6A2.59,2.59,0,0,1,698.09,93.34Z"/><path class="cls-48" d="M717.67,93.34a2.6,2.6,0,1,1-2.6-2.6A2.6,2.6,0,0,1,717.67,93.34Z"/><polygon class="cls-5" points="173.73 409.54 253.35 549.83 255.08 548.85 175.16 408.02 173.73 409.54"/><rect class="cls-25" x="396.44" y="652.63" width="14.04" height="14.04"/><rect class="cls-48" x="65.85" y="465.75" width="14.04" height="14.04"/><rect class="cls-5" x="444.03" y="679.77" width="9.57" height="9.57"/><rect class="cls-44" x="443.24" y="609.84" width="20.04" height="20.04"/><rect class="cls-44" y="269.23" width="14.7" height="20.04"/><rect class="cls-5" x="379.35" y="573.54" width="29.24" height="29.24"/><rect class="cls-5" x="21.58" y="431" width="29.24" height="29.24"/><path class="cls-44" d="M450.87,523.47h-28v28h28Zm-7,21h-14v-14h14Z"/><rect class="cls-5" x="429.86" y="530.47" width="14" height="14"/><polygon class="cls-48" points="575.17 715.85 559.25 703.31 543.33 715.85 527.4 703.31 511.48 715.85 495.57 703.32 481.27 715.58 480.58 714.77 495.54 701.95 511.48 714.5 527.4 701.96 543.33 714.5 559.25 701.96 575.17 714.5 591.1 701.96 607.02 714.5 622.95 701.96 638.87 714.5 654.8 701.96 671.05 714.76 670.4 715.59 654.8 703.31 638.87 715.85 622.95 703.31 607.02 715.85 591.1 703.31 575.17 715.85"/><polygon class="cls-48" points="575.17 687.02 559.25 674.48 543.33 687.02 527.4 674.48 511.48 687.02 495.57 674.49 481.27 686.75 480.58 685.94 495.54 673.12 511.48 685.67 527.4 673.13 543.33 685.67 559.25 673.13 575.17 685.67 591.1 673.13 607.02 685.67 622.95 673.13 638.87 685.67 654.8 673.13 671.05 685.93 670.4 686.76 654.8 674.48 638.87 687.02 622.95 674.48 607.02 687.02 591.1 674.48 575.17 687.02"/><polygon class="cls-5" points="316.55 753.2 142.36 452.48 143.47 450.87 318.09 752.31 316.55 753.2"/><polygon class="cls-5" points="0 659.06 0 646.2 174.39 408.88 179.59 416.48 0 659.06"/><path class="cls-5" d="M897.66,0H705.94s27.72,47.48,95.86,47.48C853.37,47.48,880.68,21.07,897.66,0Z"/><polygon class="cls-44" points="412.89 720.5 388.83 762.17 436.94 762.17 412.89 720.5"/><rect class="cls-44" x="249.63" y="646.48" width="114.09" height="1.77" transform="translate(-367.94 406.46) rotate(-45)"/><rect class="cls-44" x="263.01" y="667.98" width="113.46" height="1.77" transform="translate(-379.31 422) rotate(-45)"/><rect class="cls-44" x="274.45" y="689.92" width="114.09" height="1.77" transform="translate(-391.4 436.79) rotate(-45)"/><path class="cls-5" d="M438.52,763.06H126.66L282.59,493Zm-296.94-9h282l-141-244.23Z"/><path class="cls-5" d="M914.11-38.95H1226L1070,231.13Zm296.94,9H929l141,244.23Z"/><rect class="cls-5" x="967.74" y="173.75" width="21.96" height="21.52" transform="translate(1957.45 369.01) rotate(180)"/><rect class="cls-5" x="935.97" y="200.85" width="9.5" height="9.31" transform="translate(1881.43 411.01) rotate(180)"/><rect class="cls-25" x="943.57" y="113.95" width="26.21" height="25.69" transform="translate(1913.35 253.59) rotate(180)"/><rect class="cls-44" x="892.56" y="162.09" width="11.33" height="11.11" transform="translate(1796.45 335.28) rotate(180)"/><path class="cls-5" d="M0,562.08V753.79s47.48-27.72,47.48-95.86C47.48,606.36,21.07,579.05,0,562.08Z"/><path class="cls-5" d="M99.21,419.56l-3.13-.14c-35-1.54-62.38-32.29-62.38-70s27.4-68.48,62.38-70l3.13-.14Zm-6-134C63,288.64,39.7,316,39.7,349.4S63,410.16,93.21,413.2Z"/><rect class="cls-5" x="1085.31" y="32.02" width="114.69" height="1.4"/><rect class="cls-5" x="1085.31" y="56.78" width="114.69" height="1.4"/><rect class="cls-5" x="1115.31" y="90.04" width="84.69" height="1.4"/></g></g></g></svg>